<?xml version="1.0" encoding="UTF-8" standalone="no"?>
<!-- Created with Inkscape (http://www.inkscape.org/) -->

<svg
   width="64.907669mm"
   height="47.502155mm"
   viewBox="0 0 64.907667 47.502155"
   version="1.1"
   id="svg5"
   inkscape:version="1.2.2 (b0a8486541, 2022-12-01)"
   sodipodi:docname="logo-path.svg"
   xmlns:inkscape="http://www.inkscape.org/namespaces/inkscape"
   xmlns:sodipodi="http://sodipodi.sourceforge.net/DTD/sodipodi-0.dtd"
   xmlns="http://www.w3.org/2000/svg"
   xmlns:svg="http://www.w3.org/2000/svg">
  <sodipodi:namedview
     id="namedview7"
     pagecolor="#ffffff"
     bordercolor="#000000"
     borderopacity="0.25"
     inkscape:showpageshadow="2"
     inkscape:pageopacity="0.0"
     inkscape:pagecheckerboard="0"
     inkscape:deskcolor="#d1d1d1"
     inkscape:document-units="mm"
     showgrid="false"
     inkscape:zoom="0.91613913"
     inkscape:cx="348.20039"
     inkscape:cy="20.739208"
     inkscape:window-width="1920"
     inkscape:window-height="1043"
     inkscape:window-x="0"
     inkscape:window-y="0"
     inkscape:window-maximized="1"
     inkscape:current-layer="layer1" />
  <defs
     id="defs2" />
  <g
     inkscape:label="Vrstva 1"
     inkscape:groupmode="layer"
     id="layer1"
     transform="translate(-0.27905765,-0.24172214)">
    <rect
       style="fill:#ffffff;stroke-width:0.202576"
       id="rect361"
       width="64.907669"
       height="47.502155"
       x="0.27905765"
       y="0.24172214" />
    <g
       aria-label="0x55 U
0x53 S
0x45 E"
       id="text113"
       style="font-size:8.46667px;stroke-width:0.264583">
      <path
         d="M 9.8295262,15.245762 V 14.187429 H 8.7711924 V 13.129095 H 7.7128587 V 9.9540937 H 8.7711924 V 8.8957599 H 9.8295262 V 7.8374262 h 3.1750008 v 1.0583337 h 1.058334 v 1.0583338 h 1.058334 v 3.1750013 h -1.058334 v 1.058334 h -1.058334 v 1.058333 z M 10.88786,14.187429 h 2.116667 V 9.9540937 H 11.946194 V 8.8957599 H 9.8295262 V 13.129095 H 10.88786 Z"
         style="font-family:'Press Start 2P';-inkscape-font-specification:'Press Start 2P'"
         id="path838" />
      <path
         d="m 16.179529,15.245762 v -1.058333 h 1.058333 v -1.058334 h 1.058334 V 12.070761 H 17.237862 V 11.012427 H 16.179529 V 9.9540937 h 2.116667 v 1.0583333 h 1.058334 v 1.058334 h 1.058334 v -1.058334 h 1.058333 V 9.9540937 h 2.116668 v 1.0583333 h -1.058334 v 1.058334 h -1.058334 v 1.058334 h 1.058334 v 1.058334 h 1.058334 v 1.058333 H 21.471197 V 14.187429 H 20.412864 V 13.129095 H 19.35453 v 1.058334 h -1.058334 v 1.058333 z"
         style="font-family:'Press Start 2P';-inkscape-font-specification:'Press Start 2P'"
         id="path840" />
      <path
         d="m 25.704533,15.245762 v -1.058333 h -1.058334 v -1.058334 h 2.116667 v 1.058334 h 3.175002 V 11.012427 H 24.646199 V 7.8374262 h 6.350002 v 1.0583337 h -4.233335 v 1.0583338 h 4.233335 v 1.0583333 h 1.058334 v 3.175002 h -1.058334 v 1.058333 z"
         style="font-family:'Press Start 2P';-inkscape-font-specification:'Press Start 2P'"
         id="path842" />
      <path
         d="m 34.171202,15.245762 v -1.058333 h -1.058334 v -1.058334 h 2.116667 v 1.058334 h 3.175002 V 11.012427 H 33.112868 V 7.8374262 h 6.350002 v 1.0583337 h -4.233335 v 1.0583338 h 4.233335 v 1.0583333 h 1.058334 v 3.175002 H 39.46287 v 1.058333 z"
         style="font-family:'Press Start 2P';-inkscape-font-specification:'Press Start 2P'"
         id="path844" />
      <path
         d="M 51.104544,15.245762 V 14.187429 H 50.04621 V 7.8374262 h 2.116667 v 6.3500028 h 3.175002 V 7.8374262 h 2.116667 v 6.3500028 h -1.058334 v 1.058333 z"
         style="font-family:'Press Start 2P';-inkscape-font-specification:'Press Start 2P'"
         id="path846" />
      <path
         d="M 9.8295262,27.650491 V 26.592157 H 8.7711924 V 25.533823 H 7.7128587 v -3.175001 h 1.0583337 v -1.058334 h 1.0583338 v -1.058333 h 3.1750008 v 1.058333 h 1.058334 v 1.058334 h 1.058334 v 3.175001 h -1.058334 v 1.058334 h -1.058334 v 1.058334 z M 10.88786,26.592157 h 2.116667 V 22.358822 H 11.946194 V 21.300488 H 9.8295262 v 4.233335 H 10.88786 Z"
         style="font-family:'Press Start 2P';-inkscape-font-specification:'Press Start 2P'"
         id="path848" />
      <path
         d="m 16.179529,27.650491 v -1.058334 h 1.058333 v -1.058334 h 1.058334 V 24.47549 h -1.058334 v -1.058334 h -1.058333 v -1.058334 h 2.116667 v 1.058334 h 1.058334 v 1.058334 h 1.058334 v -1.058334 h 1.058333 v -1.058334 h 2.116668 v 1.058334 h -1.058334 v 1.058334 h -1.058334 v 1.058333 h 1.058334 v 1.058334 h 1.058334 v 1.058334 H 21.471197 V 26.592157 H 20.412864 V 25.533823 H 19.35453 v 1.058334 h -1.058334 v 1.058334 z"
         style="font-family:'Press Start 2P';-inkscape-font-specification:'Press Start 2P'"
         id="path850" />
      <path
         d="m 25.704533,27.650491 v -1.058334 h -1.058334 v -1.058334 h 2.116667 v 1.058334 h 3.175002 v -3.175001 h -5.291669 v -3.175001 h 6.350002 v 1.058333 h -4.233335 v 1.058334 h 4.233335 v 1.058334 h 1.058334 v 3.175001 h -1.058334 v 1.058334 z"
         style="font-family:'Press Start 2P';-inkscape-font-specification:'Press Start 2P'"
         id="path852" />
      <path
         d="m 34.171202,27.650491 v -1.058334 h -1.058334 v -1.058334 h 2.116667 v 1.058334 h 3.175002 V 24.47549 h -3.175002 v -1.058334 h 1.058334 v -1.058334 h 1.058334 v -1.058334 h -3.175001 v -1.058333 h 6.350002 v 1.058333 H 39.46287 v 1.058334 h -1.058333 v 1.058334 h 1.058333 v 1.058334 h 1.058334 v 2.116667 H 39.46287 v 1.058334 z"
         style="font-family:'Press Start 2P';-inkscape-font-specification:'Press Start 2P'"
         id="path854" />
      <path
         d="M 51.104544,27.650491 V 26.592157 H 50.04621 v -1.058334 h 2.116667 v 1.058334 h 3.175002 V 24.47549 H 51.104544 V 23.417156 H 50.04621 v -2.116668 h 1.058334 v -1.058333 h 5.291668 v 1.058333 h 1.058334 v 1.058334 h -2.116667 v -1.058334 h -3.175002 v 2.116668 h 4.233335 v 1.058334 h 1.058334 v 2.116667 h -1.058334 v 1.058334 z"
         style="font-family:'Press Start 2P';-inkscape-font-specification:'Press Start 2P'"
         id="path856" />
      <path
         d="M 9.8295262,40.055219 V 38.996885 H 8.7711924 V 37.938552 H 7.7128587 V 34.76355 h 1.0583337 v -1.058333 h 1.0583338 v -1.058334 h 3.1750008 v 1.058334 h 1.058334 v 1.058333 h 1.058334 v 3.175002 h -1.058334 v 1.058333 h -1.058334 v 1.058334 z M 10.88786,38.996885 h 2.116667 V 34.76355 H 11.946194 V 33.705217 H 9.8295262 v 4.233335 H 10.88786 Z"
         style="font-family:'Press Start 2P';-inkscape-font-specification:'Press Start 2P'"
         id="path858" />
      <path
         d="m 16.179529,40.055219 v -1.058334 h 1.058333 v -1.058333 h 1.058334 V 36.880218 H 17.237862 V 35.821884 H 16.179529 V 34.76355 h 2.116667 v 1.058334 h 1.058334 v 1.058334 h 1.058334 v -1.058334 h 1.058333 V 34.76355 h 2.116668 v 1.058334 h -1.058334 v 1.058334 h -1.058334 v 1.058334 h 1.058334 v 1.058333 h 1.058334 v 1.058334 H 21.471197 V 38.996885 H 20.412864 V 37.938552 H 19.35453 v 1.058333 h -1.058334 v 1.058334 z"
         style="font-family:'Press Start 2P';-inkscape-font-specification:'Press Start 2P'"
         id="path860" />
      <path
         d="m 28.879534,40.055219 v -2.116667 h -4.233335 v -2.116668 h 1.058334 V 34.76355 h 1.058333 V 33.705217 H 27.8212 v -1.058334 h 3.175001 v 4.233335 h 1.058334 v 1.058334 h -1.058334 v 2.116667 z m -2.116668,-3.175001 h 2.116668 V 34.76355 H 27.8212 v 1.058334 h -1.058334 z"
         style="font-family:'Press Start 2P';-inkscape-font-specification:'Press Start 2P'"
         id="path862" />
      <path
         d="m 34.171202,40.055219 v -1.058334 h -1.058334 v -1.058333 h 2.116667 v 1.058333 h 3.175002 v -3.175001 h -5.291669 v -3.175001 h 6.350002 v 1.058334 h -4.233335 v 1.058333 h 4.233335 v 1.058334 h 1.058334 v 3.175001 H 39.46287 v 1.058334 z"
         style="font-family:'Press Start 2P';-inkscape-font-specification:'Press Start 2P'"
         id="path864" />
      <path
         d="m 50.04621,40.055219 v -7.408336 h 7.408336 v 1.058334 h -5.291669 v 2.116667 h 4.233335 v 1.058334 h -4.233335 v 2.116667 h 5.291669 v 1.058334 z"
         style="font-family:'Press Start 2P';-inkscape-font-specification:'Press Start 2P'"
         id="path866" />
    </g>
  </g>
</svg>
