<?xml version="1.0" encoding="UTF-8" standalone="no"?>
<!-- Created with Inkscape (http://www.inkscape.org/) -->

<svg
   width="132.31599mm"
   height="47.502155mm"
   viewBox="0 0 132.31599 47.502155"
   version="1.1"
   id="svg5"
   inkscape:version="1.2.2 (b0a8486541, 2022-12-01)"
   sodipodi:docname="logo-full-path.svg"
   xmlns:inkscape="http://www.inkscape.org/namespaces/inkscape"
   xmlns:sodipodi="http://sodipodi.sourceforge.net/DTD/sodipodi-0.dtd"
   xmlns="http://www.w3.org/2000/svg"
   xmlns:svg="http://www.w3.org/2000/svg">
  <sodipodi:namedview
     id="namedview7"
     pagecolor="#ffffff"
     bordercolor="#000000"
     borderopacity="0.25"
     inkscape:showpageshadow="2"
     inkscape:pageopacity="0.0"
     inkscape:pagecheckerboard="0"
     inkscape:deskcolor="#d1d1d1"
     inkscape:document-units="mm"
     showgrid="false"
     inkscape:zoom="0.91613913"
     inkscape:cx="348.20039"
     inkscape:cy="20.739208"
     inkscape:window-width="1920"
     inkscape:window-height="1043"
     inkscape:window-x="0"
     inkscape:window-y="0"
     inkscape:window-maximized="1"
     inkscape:current-layer="layer1" />
  <defs
     id="defs2" />
  <g
     inkscape:label="Vrstva 1"
     inkscape:groupmode="layer"
     id="layer1"
     transform="translate(-0.27905765,-0.24172214)">
    <rect
       style="fill:#ffffff;stroke-width:0.289232"
       id="rect361"
       width="132.31599"
       height="47.502155"
       x="0.27905765"
       y="0.24172214" />
    <g
       aria-label="0x55 Universal
0x53 System
0x45 Emulator"
       id="text113"
       style="font-size:8.46667px;stroke-width:0.264583">
      <path
         d="M 9.8295262,15.245762 V 14.187429 H 8.7711924 V 13.129095 H 7.7128587 V 9.9540937 H 8.7711924 V 8.8957599 H 9.8295262 V 7.8374262 h 3.1750008 v 1.0583337 h 1.058334 v 1.0583338 h 1.058334 v 3.1750013 h -1.058334 v 1.058334 h -1.058334 v 1.058333 z M 10.88786,14.187429 h 2.116667 V 9.9540937 H 11.946194 V 8.8957599 H 9.8295262 V 13.129095 H 10.88786 Z"
         style="font-family:'Press Start 2P';-inkscape-font-specification:'Press Start 2P'"
         id="path543" />
      <path
         d="m 16.179529,15.245762 v -1.058333 h 1.058333 v -1.058334 h 1.058334 V 12.070761 H 17.237862 V 11.012427 H 16.179529 V 9.9540937 h 2.116667 v 1.0583333 h 1.058334 v 1.058334 h 1.058334 v -1.058334 h 1.058333 V 9.9540937 h 2.116668 v 1.0583333 h -1.058334 v 1.058334 h -1.058334 v 1.058334 h 1.058334 v 1.058334 h 1.058334 v 1.058333 H 21.471197 V 14.187429 H 20.412864 V 13.129095 H 19.35453 v 1.058334 h -1.058334 v 1.058333 z"
         style="font-family:'Press Start 2P';-inkscape-font-specification:'Press Start 2P'"
         id="path545" />
      <path
         d="m 25.704533,15.245762 v -1.058333 h -1.058334 v -1.058334 h 2.116667 v 1.058334 h 3.175002 V 11.012427 H 24.646199 V 7.8374262 h 6.350002 v 1.0583337 h -4.233335 v 1.0583338 h 4.233335 v 1.0583333 h 1.058334 v 3.175002 h -1.058334 v 1.058333 z"
         style="font-family:'Press Start 2P';-inkscape-font-specification:'Press Start 2P'"
         id="path547" />
      <path
         d="m 34.171202,15.245762 v -1.058333 h -1.058334 v -1.058334 h 2.116667 v 1.058334 h 3.175002 V 11.012427 H 33.112868 V 7.8374262 h 6.350002 v 1.0583337 h -4.233335 v 1.0583338 h 4.233335 v 1.0583333 h 1.058334 v 3.175002 H 39.46287 v 1.058333 z"
         style="font-family:'Press Start 2P';-inkscape-font-specification:'Press Start 2P'"
         id="path549" />
      <path
         d="M 51.104544,15.245762 V 14.187429 H 50.04621 V 7.8374262 h 2.116667 v 6.3500028 h 3.175002 V 7.8374262 h 2.116667 v 6.3500028 h -1.058334 v 1.058333 z"
         style="font-family:'Press Start 2P';-inkscape-font-specification:'Press Start 2P'"
         id="path551" />
      <path
         d="M 58.512877,15.245762 V 9.9540937 h 6.350003 v 1.0583333 h 1.058333 v 4.233335 h -2.116667 v -4.233335 h -3.175002 v 4.233335 z"
         style="font-family:'Press Start 2P';-inkscape-font-specification:'Press Start 2P'"
         id="path553" />
      <path
         d="M 70.154549,8.8957599 V 7.8374262 h 2.116668 v 1.0583337 z m -2.116667,6.3500021 v -1.058333 h 2.116667 V 11.012427 H 69.096215 V 9.9540937 h 3.175002 v 4.2333353 h 2.116667 v 1.058333 z"
         style="font-family:'Press Start 2P';-inkscape-font-specification:'Press Start 2P'"
         id="path555" />
      <path
         d="M 78.62122,15.245762 V 14.187429 H 77.562886 V 13.129095 H 76.504553 V 9.9540937 h 2.116667 v 3.1750013 h 2.116668 V 9.9540937 h 2.116667 v 3.1750013 h -1.058334 v 1.058334 h -1.058333 v 1.058333 z"
         style="font-family:'Press Start 2P';-inkscape-font-specification:'Press Start 2P'"
         id="path557" />
      <path
         d="M 84.97122,15.245762 V 14.187429 H 83.912886 V 11.012427 H 84.97122 V 9.9540937 h 5.291669 v 1.0583333 h 1.058333 v 2.116668 h -5.291668 v 1.058334 h 4.233335 v 1.058333 z m 1.058334,-3.175001 h 3.175001 v -1.058334 h -3.175001 z"
         style="font-family:'Press Start 2P';-inkscape-font-specification:'Press Start 2P'"
         id="path559" />
      <path
         d="m 95.554562,11.012427 h 1.058334 v 1.058334 h -1.058334 v 3.175001 H 93.437895 V 9.9540937 h 2.116667 z M 99.787897,9.9540937 V 11.012427 H 96.612896 V 9.9540937 Z"
         style="font-family:'Press Start 2P';-inkscape-font-specification:'Press Start 2P'"
         id="path561" />
      <path
         d="m 100.84623,15.245762 v -1.058333 h 5.29167 v -1.058334 h -4.23334 v -1.058334 h -1.05833 v -1.058334 h 1.05833 V 9.9540937 h 5.29167 v 1.0583333 h -4.23333 v 1.058334 h 4.23333 v 1.058334 h 1.05833 v 1.058334 h -1.05833 v 1.058333 z"
         style="font-family:'Press Start 2P';-inkscape-font-specification:'Press Start 2P'"
         id="path563" />
      <path
         d="m 110.37123,15.245762 v -1.058333 h -1.05833 v -1.058334 h 1.05833 v -1.058334 h 4.23333 v -1.058334 h -4.23333 V 9.9540937 h 5.29167 v 1.0583333 h 1.05833 v 4.233335 z m 1.05833,-1.058333 h 3.175 v -1.058334 h -3.175 z"
         style="font-family:'Press Start 2P';-inkscape-font-specification:'Press Start 2P'"
         id="path565" />
      <path
         d="m 118.8379,15.245762 v -1.058333 h 2.11667 V 8.8957599 h -1.05833 V 7.8374262 h 3.175 v 6.3500028 h 2.11667 v 1.058333 z"
         style="font-family:'Press Start 2P';-inkscape-font-specification:'Press Start 2P'"
         id="path567" />
      <path
         d="M 9.8295262,27.650491 V 26.592157 H 8.7711924 V 25.533823 H 7.7128587 v -3.175001 h 1.0583337 v -1.058334 h 1.0583338 v -1.058333 h 3.1750008 v 1.058333 h 1.058334 v 1.058334 h 1.058334 v 3.175001 h -1.058334 v 1.058334 h -1.058334 v 1.058334 z M 10.88786,26.592157 h 2.116667 V 22.358822 H 11.946194 V 21.300488 H 9.8295262 v 4.233335 H 10.88786 Z"
         style="font-family:'Press Start 2P';-inkscape-font-specification:'Press Start 2P'"
         id="path569" />
      <path
         d="m 16.179529,27.650491 v -1.058334 h 1.058333 v -1.058334 h 1.058334 V 24.47549 h -1.058334 v -1.058334 h -1.058333 v -1.058334 h 2.116667 v 1.058334 h 1.058334 v 1.058334 h 1.058334 v -1.058334 h 1.058333 v -1.058334 h 2.116668 v 1.058334 h -1.058334 v 1.058334 h -1.058334 v 1.058333 h 1.058334 v 1.058334 h 1.058334 v 1.058334 H 21.471197 V 26.592157 H 20.412864 V 25.533823 H 19.35453 v 1.058334 h -1.058334 v 1.058334 z"
         style="font-family:'Press Start 2P';-inkscape-font-specification:'Press Start 2P'"
         id="path571" />
      <path
         d="m 25.704533,27.650491 v -1.058334 h -1.058334 v -1.058334 h 2.116667 v 1.058334 h 3.175002 v -3.175001 h -5.291669 v -3.175001 h 6.350002 v 1.058333 h -4.233335 v 1.058334 h 4.233335 v 1.058334 h 1.058334 v 3.175001 h -1.058334 v 1.058334 z"
         style="font-family:'Press Start 2P';-inkscape-font-specification:'Press Start 2P'"
         id="path573" />
      <path
         d="m 34.171202,27.650491 v -1.058334 h -1.058334 v -1.058334 h 2.116667 v 1.058334 h 3.175002 V 24.47549 h -3.175002 v -1.058334 h 1.058334 v -1.058334 h 1.058334 v -1.058334 h -3.175001 v -1.058333 h 6.350002 v 1.058333 H 39.46287 v 1.058334 h -1.058333 v 1.058334 h 1.058333 v 1.058334 h 1.058334 v 2.116667 H 39.46287 v 1.058334 z"
         style="font-family:'Press Start 2P';-inkscape-font-specification:'Press Start 2P'"
         id="path575" />
      <path
         d="M 51.104544,27.650491 V 26.592157 H 50.04621 v -1.058334 h 2.116667 v 1.058334 h 3.175002 V 24.47549 H 51.104544 V 23.417156 H 50.04621 v -2.116668 h 1.058334 v -1.058333 h 5.291668 v 1.058333 h 1.058334 v 1.058334 h -2.116667 v -1.058334 h -3.175002 v 2.116668 h 4.233335 v 1.058334 h 1.058334 v 2.116667 h -1.058334 v 1.058334 z"
         style="font-family:'Press Start 2P';-inkscape-font-specification:'Press Start 2P'"
         id="path577" />
      <path
         d="m 59.571211,28.708825 v -1.058334 h 4.233335 v -1.058334 h -4.233335 v -1.058334 h -1.058334 v -3.175001 h 2.116667 v 3.175001 h 3.175002 v -3.175001 h 2.116667 v 5.291669 H 64.86288 v 1.058334 z"
         style="font-family:'Press Start 2P';-inkscape-font-specification:'Press Start 2P'"
         id="path579" />
      <path
         d="m 66.979548,27.650491 v -1.058334 h 5.291669 V 25.533823 H 68.037882 V 24.47549 h -1.058334 v -1.058334 h 1.058334 v -1.058334 h 5.291669 v 1.058334 h -4.233336 v 1.058334 h 4.233336 v 1.058333 h 1.058333 v 1.058334 h -1.058333 v 1.058334 z"
         style="font-family:'Press Start 2P';-inkscape-font-specification:'Press Start 2P'"
         id="path581" />
      <path
         d="m 78.62122,27.650491 v -4.233335 h -2.116667 v -1.058334 h 2.116667 v -2.116667 h 2.116668 v 2.116667 h 2.116667 v 1.058334 h -2.116667 v 4.233335 z"
         style="font-family:'Press Start 2P';-inkscape-font-specification:'Press Start 2P'"
         id="path583" />
      <path
         d="m 84.97122,27.650491 v -1.058334 h -1.058334 v -3.175001 h 1.058334 v -1.058334 h 5.291669 v 1.058334 h 1.058333 v 2.116667 h -5.291668 v 1.058334 h 4.233335 v 1.058334 z m 1.058334,-3.175001 h 3.175001 v -1.058334 h -3.175001 z"
         style="font-family:'Press Start 2P';-inkscape-font-specification:'Press Start 2P'"
         id="path585" />
      <path
         d="m 92.379561,27.650491 v -5.291669 h 6.350002 v 1.058334 h 1.058334 v 4.233335 H 97.67123 v -4.233335 h -1.058334 v 4.233335 h -2.116668 v -4.233335 h -1.058333 v 4.233335 z"
         style="font-family:'Press Start 2P';-inkscape-font-specification:'Press Start 2P'"
         id="path587" />
      <path
         d="M 9.8295262,40.055219 V 38.996885 H 8.7711924 V 37.938552 H 7.7128587 V 34.76355 h 1.0583337 v -1.058333 h 1.0583338 v -1.058334 h 3.1750008 v 1.058334 h 1.058334 v 1.058333 h 1.058334 v 3.175002 h -1.058334 v 1.058333 h -1.058334 v 1.058334 z M 10.88786,38.996885 h 2.116667 V 34.76355 H 11.946194 V 33.705217 H 9.8295262 v 4.233335 H 10.88786 Z"
         style="font-family:'Press Start 2P';-inkscape-font-specification:'Press Start 2P'"
         id="path589" />
      <path
         d="m 16.179529,40.055219 v -1.058334 h 1.058333 v -1.058333 h 1.058334 V 36.880218 H 17.237862 V 35.821884 H 16.179529 V 34.76355 h 2.116667 v 1.058334 h 1.058334 v 1.058334 h 1.058334 v -1.058334 h 1.058333 V 34.76355 h 2.116668 v 1.058334 h -1.058334 v 1.058334 h -1.058334 v 1.058334 h 1.058334 v 1.058333 h 1.058334 v 1.058334 H 21.471197 V 38.996885 H 20.412864 V 37.938552 H 19.35453 v 1.058333 h -1.058334 v 1.058334 z"
         style="font-family:'Press Start 2P';-inkscape-font-specification:'Press Start 2P'"
         id="path591" />
      <path
         d="m 28.879534,40.055219 v -2.116667 h -4.233335 v -2.116668 h 1.058334 V 34.76355 h 1.058333 V 33.705217 H 27.8212 v -1.058334 h 3.175001 v 4.233335 h 1.058334 v 1.058334 h -1.058334 v 2.116667 z m -2.116668,-3.175001 h 2.116668 V 34.76355 H 27.8212 v 1.058334 h -1.058334 z"
         style="font-family:'Press Start 2P';-inkscape-font-specification:'Press Start 2P'"
         id="path593" />
      <path
         d="m 34.171202,40.055219 v -1.058334 h -1.058334 v -1.058333 h 2.116667 v 1.058333 h 3.175002 v -3.175001 h -5.291669 v -3.175001 h 6.350002 v 1.058334 h -4.233335 v 1.058333 h 4.233335 v 1.058334 h 1.058334 v 3.175001 H 39.46287 v 1.058334 z"
         style="font-family:'Press Start 2P';-inkscape-font-specification:'Press Start 2P'"
         id="path595" />
      <path
         d="m 50.04621,40.055219 v -7.408336 h 7.408336 v 1.058334 h -5.291669 v 2.116667 h 4.233335 v 1.058334 h -4.233335 v 2.116667 h 5.291669 v 1.058334 z"
         style="font-family:'Press Start 2P';-inkscape-font-specification:'Press Start 2P'"
         id="path597" />
      <path
         d="M 58.512877,40.055219 V 34.76355 h 6.350003 v 1.058334 h 1.058333 v 4.233335 h -2.116667 v -4.233335 h -1.058334 v 4.233335 h -2.116668 v -4.233335 h -1.058333 v 4.233335 z"
         style="font-family:'Press Start 2P';-inkscape-font-specification:'Press Start 2P'"
         id="path599" />
      <path
         d="M 68.037882,40.055219 V 38.996885 H 66.979548 V 34.76355 h 2.116667 v 4.233335 h 3.175002 V 34.76355 h 2.116667 v 5.291669 z"
         style="font-family:'Press Start 2P';-inkscape-font-specification:'Press Start 2P'"
         id="path601" />
      <path
         d="m 76.504553,40.055219 v -1.058334 h 2.116667 v -5.291668 h -1.058334 v -1.058334 h 3.175002 v 6.350002 h 2.116667 v 1.058334 z"
         style="font-family:'Press Start 2P';-inkscape-font-specification:'Press Start 2P'"
         id="path603" />
      <path
         d="m 84.97122,40.055219 v -1.058334 h -1.058334 v -1.058333 h 1.058334 v -1.058334 h 4.233335 V 35.821884 H 84.97122 V 34.76355 h 5.291669 v 1.058334 h 1.058333 v 4.233335 z m 1.058334,-1.058334 h 3.175001 v -1.058333 h -3.175001 z"
         style="font-family:'Press Start 2P';-inkscape-font-specification:'Press Start 2P'"
         id="path605" />
      <path
         d="M 95.554562,40.055219 V 35.821884 H 93.437895 V 34.76355 h 2.116667 v -2.116667 h 2.116668 v 2.116667 h 2.116667 v 1.058334 H 97.67123 v 4.233335 z"
         style="font-family:'Press Start 2P';-inkscape-font-specification:'Press Start 2P'"
         id="path607" />
      <path
         d="m 101.90456,40.055219 v -1.058334 h -1.05833 v -3.175001 h 1.05833 V 34.76355 h 5.29167 v 1.058334 h 1.05833 v 3.175001 h -1.05833 v 1.058334 z m 1.05834,-1.058334 h 3.175 v -3.175001 h -3.175 z"
         style="font-family:'Press Start 2P';-inkscape-font-specification:'Press Start 2P'"
         id="path609" />
      <path
         d="m 112.4879,35.821884 h 1.05833 v 1.058334 h -1.05833 v 3.175001 h -2.11667 V 34.76355 h 2.11667 z m 4.23333,-1.058334 v 1.058334 h -3.175 V 34.76355 Z"
         style="font-family:'Press Start 2P';-inkscape-font-specification:'Press Start 2P'"
         id="path611" />
    </g>
  </g>
</svg>
